<?xml version="1.0" encoding="UTF-8" standalone="no" ?>
<!DOCTYPE svg PUBLIC "-//W3C//DTD SVG 1.1//EN" "http://www.w3.org/Graphics/SVG/1.1/DTD/svg11.dtd">
<svg xmlns="http://www.w3.org/2000/svg" xmlns:xlink="http://www.w3.org/1999/xlink" version="1.1" width="1280" height="1024" viewBox="0 0 1280 1024" xml:space="preserve">
<desc>Created with Fabric.js 5.3.0</desc>
<defs>
</defs>
<g transform="matrix(1 0 0 1 640 512)" id="background-logo"  >
<rect style="stroke: none; stroke-width: 0; stroke-dasharray: none; stroke-linecap: butt; stroke-dashoffset: 0; stroke-linejoin: miter; stroke-miterlimit: 4; fill: rgb(255,255,255); fill-opacity: 0; fill-rule: nonzero; opacity: 1;"  paint-order="stroke"  x="-640" y="-512" rx="0" ry="0" width="1280" height="1024" />
</g>
<g transform="matrix(2.2856818326497987 0 0 2.2856818326497987 640.1341299677766 512.5365198711063)" id="logo-logo"  >
<g style=""  paint-order="stroke"   >
		<g transform="matrix(2.624703014871477 0 0 -2.624703014871477 -42.17136581024147 42.17136581024147)"  >
<path style="stroke: none; stroke-width: 1; stroke-dasharray: none; stroke-linecap: butt; stroke-dashoffset: 0; stroke-linejoin: miter; stroke-miterlimit: 4; fill: rgb(84,84,85); fill-rule: nonzero; opacity: 1;"  paint-order="stroke"  transform=" translate(-11.709999999999999, 21.5135)" d="M 0 0 L 33.224 -33.224 L 23.42 -43.027 L -9.804 -9.804 Z" stroke-linecap="round" />
</g>
		<g transform="matrix(2.624703014871477 0 0 -2.624703014871477 42.17136581024147 42.17136581024147)"  >
<path style="stroke: none; stroke-width: 1; stroke-dasharray: none; stroke-linecap: butt; stroke-dashoffset: 0; stroke-linejoin: miter; stroke-miterlimit: 4; fill: rgb(174,174,167); fill-rule: nonzero; opacity: 1;"  paint-order="stroke"  transform=" translate(11.709999999999997, 21.5135)" d="M 0 0 L 9.804 -9.804 L -23.419999999999995 -43.027 L -33.224 -33.224000000000004 z" stroke-linecap="round" />
</g>
		<g transform="matrix(2.624703014871477 0 0 -2.624703014871477 42.17162828054302 -42.1713658102415)"  >
<path style="stroke: none; stroke-width: 1; stroke-dasharray: none; stroke-linecap: butt; stroke-dashoffset: 0; stroke-linejoin: miter; stroke-miterlimit: 4; fill: rgb(0,0,0); fill-rule: nonzero; opacity: 1;"  paint-order="stroke"  transform=" translate(-11.709999999999999, 21.5135)" d="M 0 0 L 33.224 -33.224 L 23.42 -43.027 L -9.804 -9.804 Z" stroke-linecap="round" />
</g>
		<g transform="matrix(2.624703014871477 0 0 -2.624703014871477 -42.17162828054302 -42.1713658102415)"  >
<path style="stroke: none; stroke-width: 1; stroke-dasharray: none; stroke-linecap: butt; stroke-dashoffset: 0; stroke-linejoin: miter; stroke-miterlimit: 4; fill: rgb(147,147,144); fill-rule: nonzero; opacity: 1;"  paint-order="stroke"  transform=" translate(11.709999999999997, 21.5135)" d="M 0 0 L 9.804 -9.804 L -23.419999999999995 -43.027 L -33.224 -33.224000000000004 z" stroke-linecap="round" />
</g>
		<g transform="matrix(2.624703014871477 0 0 -2.624703014871477 0.0005249406029861348 72.90716305498944)"  >
<path style="stroke: none; stroke-width: 1; stroke-dasharray: none; stroke-linecap: butt; stroke-dashoffset: 0; stroke-linejoin: miter; stroke-miterlimit: 4; fill: rgb(107,107,107); fill-rule: nonzero; opacity: 1;"  paint-order="stroke"  transform=" translate(5.4455, 0.0019999999999997797)" d="M 0 0 L -5.446 -5.45 L -10.891 0 L -5.446 5.446 Z" stroke-linecap="round" />
</g>
		<g transform="matrix(2.624703014871477 0 0 -2.624703014871477 72.90690058468795 0.00026247030143622396)"  >
<path style="stroke: none; stroke-width: 1; stroke-dasharray: none; stroke-linecap: butt; stroke-dashoffset: 0; stroke-linejoin: miter; stroke-miterlimit: 4; fill: rgb(115,115,115); fill-rule: nonzero; opacity: 1;"  paint-order="stroke"  transform=" translate(5.4475, 0)" d="M 0 0 L -5.449 -5.446 L -10.895 0 L -5.449 5.446 Z" stroke-linecap="round" />
</g>
		<g transform="matrix(2.624703014871477 0 0 -2.624703014871477 -72.90637564408502 0.00026247030143622396)"  >
<path style="stroke: none; stroke-width: 1; stroke-dasharray: none; stroke-linecap: butt; stroke-dashoffset: 0; stroke-linejoin: miter; stroke-miterlimit: 4; fill: rgb(0,0,0); fill-rule: nonzero; opacity: 1;"  paint-order="stroke"  transform=" translate(5.4475, 0)" d="M 0 0 L -5.446 -5.446 L -10.895 0 L -5.446 5.446 Z" stroke-linecap="round" />
</g>
		<g transform="matrix(2.624703014871477 0 0 -2.624703014871477 0.0005249406029861348 -72.90663811438651)"  >
<path style="stroke: none; stroke-width: 1; stroke-dasharray: none; stroke-linecap: butt; stroke-dashoffset: 0; stroke-linejoin: miter; stroke-miterlimit: 4; fill: rgb(67,67,67); fill-rule: nonzero; opacity: 1;"  paint-order="stroke"  transform=" translate(5.4455, -0.002000000000000668)" d="M 0 0 L -5.446 -5.446 L -10.891 0 L -5.446 5.45 Z" stroke-linecap="round" />
</g>
</g>
</g>
<g transform="matrix(1 0 0 1 325.06981740064447 432.13134477204835)" id="tagline-663dcb54-485f-4166-8372-8c733125078c-logo"  >
<g style=""  paint-order="stroke"   >
		<g transform="matrix(1 0 0 1 0 0)" id="tagline-663dcb54-485f-4166-8372-8c733125078c-logo-path-0"  >
<path style="stroke: none; stroke-width: 0; stroke-dasharray: none; stroke-linecap: butt; stroke-dashoffset: 0; stroke-linejoin: miter; stroke-miterlimit: 4; fill: rgb(0,0,0); fill-rule: nonzero; opacity: 1;"  paint-order="stroke"  transform=" translate(0, 0)" d="" stroke-linecap="round" />
</g>
</g>
</g>
<g transform="matrix(1.9211538461538462 0 0 1.9211538461538462 646.8946703523919 505.5094770249525)" id="tagline-70ffadea-5dd7-4476-aa5d-0a4990904677-logo"  >
<g style=""  paint-order="stroke"   >
		<g transform="matrix(1 0 0 1 0 0)" id="tagline-70ffadea-5dd7-4476-aa5d-0a4990904677-logo-path-0"  >
<path style="stroke: none; stroke-width: 0; stroke-dasharray: none; stroke-linecap: butt; stroke-dashoffset: 0; stroke-linejoin: miter; stroke-miterlimit: 4; fill: rgb(0,0,0); fill-rule: nonzero; opacity: 1;"  paint-order="stroke"  transform=" translate(-20.349999999999998, 35.7)" d="M 14.69 -65.28 L 3.16 0 L 24.89 0 L 37.54 -71.4 L 10.61 -71.4 Z" stroke-linecap="round" />
</g>
</g>
</g>
</svg>